<svg width="300" height="250" viewBox="0 0 300 250" fill="none" xmlns="http://www.w3.org/2000/svg">
<g clip-path="url(#clip0_50_810)">
<rect x="17.5" y="13.5" width="264" height="45" rx="14.5" stroke="#FF4500"/>
<path d="M32.6953 31.8125H29.9062C29.8385 31.8125 29.7708 31.8125 29.7031 31.8125C29.6354 31.8125 29.5729 31.8047 29.5156 31.7891C29.4635 31.7734 29.4193 31.75 29.3828 31.7188C29.3516 31.6823 29.3359 31.6328 29.3359 31.5703C29.3359 31.4922 29.3542 31.4349 29.3906 31.3984C29.4271 31.362 29.4714 31.3359 29.5234 31.3203C29.5807 31.3047 29.6432 31.2969 29.7109 31.2969C29.7786 31.2969 29.8438 31.2969 29.9062 31.2969H36.1484C36.2266 31.2969 36.2995 31.2969 36.3672 31.2969C36.4349 31.2969 36.4922 31.3047 36.5391 31.3203C36.5911 31.3359 36.6328 31.362 36.6641 31.3984C36.6953 31.4349 36.7109 31.487 36.7109 31.5547C36.7109 31.6276 36.6953 31.6823 36.6641 31.7188C36.6328 31.75 36.5911 31.7734 36.5391 31.7891C36.4922 31.8047 36.4349 31.8125 36.3672 31.8125C36.2995 31.8125 36.2266 31.8125 36.1484 31.8125H33.3594V39.4844H36.1484C36.2266 39.4844 36.2995 39.4844 36.3672 39.4844C36.4349 39.4844 36.4922 39.4922 36.5391 39.5078C36.5911 39.5234 36.6328 39.5495 36.6641 39.5859C36.6953 39.6224 36.7109 39.6745 36.7109 39.7422C36.7109 39.8151 36.6953 39.8698 36.6641 39.9062C36.6328 39.9375 36.5911 39.9609 36.5391 39.9766C36.4922 39.9922 36.4349 40 36.3672 40C36.2995 40 36.2266 40 36.1484 40H29.9062C29.8438 40 29.7786 40 29.7109 40C29.6432 40 29.5807 39.9922 29.5234 39.9766C29.4714 39.9609 29.4271 39.9349 29.3906 39.8984C29.3542 39.862 29.3359 39.8047 29.3359 39.7266C29.3359 39.6641 29.3516 39.6172 29.3828 39.5859C29.4193 39.5495 29.4635 39.5234 29.5156 39.5078C29.5729 39.4922 29.6354 39.4844 29.7031 39.4844C29.7708 39.4844 29.8385 39.4844 29.9062 39.4844H32.6953V31.8125ZM45.0703 39.4375C45.0703 39.5052 45.0651 39.5729 45.0547 39.6406C45.0443 39.7083 45.026 39.7682 45 39.8203C44.9792 39.8724 44.9479 39.9167 44.9062 39.9531C44.8646 39.9844 44.8125 40 44.75 40C44.6719 40 44.612 39.9844 44.5703 39.9531C44.5339 39.9167 44.5052 39.8724 44.4844 39.8203C44.4635 39.7682 44.4505 39.7083 44.4453 39.6406C44.4453 39.5729 44.4453 39.5052 44.4453 39.4375V36.7344C44.4453 36.3281 44.4141 35.974 44.3516 35.6719C44.2943 35.3698 44.1771 35.1198 44 34.9219C43.8281 34.7188 43.5859 34.5677 43.2734 34.4688C42.9661 34.3698 42.5625 34.3203 42.0625 34.3203C41.7552 34.3203 41.4297 34.3464 41.0859 34.3984C40.7422 34.4453 40.4141 34.5312 40.1016 34.6562C39.7891 34.776 39.513 34.9375 39.2734 35.1406C39.0339 35.3438 38.8672 35.599 38.7734 35.9062V39.4375C38.7734 39.5052 38.7708 39.5729 38.7656 39.6406C38.7604 39.7083 38.7474 39.7682 38.7266 39.8203C38.7057 39.8724 38.6745 39.9167 38.6328 39.9531C38.5964 39.9844 38.5469 40 38.4844 40C38.4115 40 38.3516 39.9844 38.3047 39.9531C38.263 39.9167 38.2292 39.8724 38.2031 39.8203C38.1823 39.7682 38.1667 39.7083 38.1562 39.6406C38.151 39.5729 38.1484 39.5052 38.1484 39.4375V34.375C38.1484 34.2865 38.1667 34.2057 38.2031 34.1328C38.2396 34.0547 38.3307 34.0156 38.4766 34.0156C38.6068 34.0156 38.6875 34.0521 38.7188 34.125C38.7552 34.1927 38.7734 34.276 38.7734 34.375V35.3594C38.9193 35.026 39.1224 34.7604 39.3828 34.5625C39.6432 34.3594 39.9271 34.2083 40.2344 34.1094C40.5469 34.0052 40.862 33.9375 41.1797 33.9062C41.5026 33.875 41.7969 33.8594 42.0625 33.8594C42.625 33.8594 43.0964 33.9089 43.4766 34.0078C43.862 34.1016 44.1719 34.2604 44.4062 34.4844C44.6458 34.7083 44.8151 35.0052 44.9141 35.375C45.0182 35.7396 45.0703 36.1927 45.0703 36.7344V39.4375ZM51.125 34.3203C50.526 34.3203 50.0156 34.3698 49.5938 34.4688C49.1719 34.5677 48.8255 34.7266 48.5547 34.9453C48.2891 35.1589 48.0938 35.4349 47.9688 35.7734C47.8438 36.112 47.7812 36.5182 47.7812 36.9922C47.7812 37.4714 47.849 37.8776 47.9844 38.2109C48.125 38.5443 48.3333 38.8151 48.6094 39.0234C48.8906 39.2318 49.2396 39.3828 49.6562 39.4766C50.0729 39.5703 50.5599 39.6172 51.1172 39.6172C51.3672 39.6172 51.6198 39.599 51.875 39.5625C52.1354 39.526 52.3828 39.4818 52.6172 39.4297C52.8516 39.3724 53.0677 39.3099 53.2656 39.2422C53.4635 39.1745 53.625 39.1094 53.75 39.0469C53.8281 39.0208 53.8828 39.0078 53.9141 39.0078C53.9818 39.0078 54.0339 39.0286 54.0703 39.0703C54.112 39.1068 54.1328 39.1536 54.1328 39.2109C54.1328 39.2526 54.1198 39.2969 54.0938 39.3438C54.0677 39.3854 54.026 39.4219 53.9688 39.4531C53.5104 39.6875 53.0365 39.8516 52.5469 39.9453C52.0573 40.0339 51.5833 40.0781 51.125 40.0781C50.5312 40.0781 49.9896 40.0312 49.5 39.9375C49.0156 39.8438 48.599 39.6797 48.25 39.4453C47.9062 39.2109 47.638 38.8958 47.4453 38.5C47.2526 38.1042 47.1562 37.6016 47.1562 36.9922C47.1562 36.388 47.2448 35.8854 47.4219 35.4844C47.599 35.0833 47.8568 34.763 48.1953 34.5234C48.5339 34.2786 48.9479 34.1068 49.4375 34.0078C49.9323 33.9089 50.4948 33.8594 51.125 33.8594C51.5833 33.8594 52.0573 33.9062 52.5469 34C53.0365 34.0885 53.5104 34.25 53.9688 34.4844C54.026 34.5156 54.0677 34.5547 54.0938 34.6016C54.1198 34.6432 54.1328 34.6849 54.1328 34.7266C54.1328 34.7839 54.112 34.8333 54.0703 34.875C54.0339 34.9115 53.9818 34.9297 53.9141 34.9297C53.8828 34.9297 53.8281 34.9167 53.75 34.8906C53.625 34.8281 53.4635 34.763 53.2656 34.6953C53.0677 34.6276 52.8516 34.5677 52.6172 34.5156C52.3828 34.4583 52.1354 34.4115 51.875 34.375C51.6198 34.3385 51.3698 34.3203 51.125 34.3203ZM59.8438 40.0781C59.125 40.0781 58.5182 40.0078 58.0234 39.8672C57.5286 39.7214 57.1276 39.5156 56.8203 39.25C56.5182 38.9844 56.2995 38.6615 56.1641 38.2812C56.0286 37.901 55.9609 37.4714 55.9609 36.9922C55.9609 36.4401 56.0365 35.9688 56.1875 35.5781C56.3438 35.1823 56.5807 34.8568 56.8984 34.6016C57.2214 34.3464 57.625 34.1589 58.1094 34.0391C58.599 33.9193 59.1771 33.8594 59.8438 33.8594C60.5104 33.8594 61.0859 33.9193 61.5703 34.0391C62.0599 34.1589 62.4635 34.3464 62.7812 34.6016C63.1042 34.8568 63.3411 35.1823 63.4922 35.5781C63.6484 35.9688 63.7266 36.4401 63.7266 36.9922C63.7266 37.4714 63.6589 37.901 63.5234 38.2812C63.388 38.6615 63.1667 38.9844 62.8594 39.25C62.5573 39.5156 62.1589 39.7214 61.6641 39.8672C61.1693 40.0078 60.5625 40.0781 59.8438 40.0781ZM59.8438 39.6172C60.3177 39.6172 60.7266 39.5833 61.0703 39.5156C61.4141 39.4427 61.7057 39.3438 61.9453 39.2188C62.1901 39.0938 62.3854 38.9479 62.5312 38.7812C62.6823 38.6146 62.7995 38.4349 62.8828 38.2422C62.9714 38.0443 63.0286 37.8411 63.0547 37.6328C63.0859 37.4193 63.1016 37.2057 63.1016 36.9922C63.1016 36.5078 63.0391 36.0964 62.9141 35.7578C62.7891 35.4193 62.5938 35.1432 62.3281 34.9297C62.0625 34.7161 61.724 34.5625 61.3125 34.4688C60.901 34.3698 60.4115 34.3203 59.8438 34.3203C59.2708 34.3203 58.7786 34.3698 58.3672 34.4688C57.9609 34.5625 57.625 34.7161 57.3594 34.9297C57.0938 35.1432 56.8984 35.4193 56.7734 35.7578C56.6484 36.0964 56.5859 36.5078 56.5859 36.9922C56.5859 37.2057 56.599 37.4193 56.625 37.6328C56.6562 37.8411 56.7135 38.0443 56.7969 38.2422C56.8854 38.4349 57.0026 38.6146 57.1484 38.7812C57.2995 38.9479 57.4948 39.0938 57.7344 39.2188C57.9792 39.3438 58.2734 39.4427 58.6172 39.5156C58.9609 39.5833 59.3698 39.6172 59.8438 39.6172ZM75.6484 36.1797C75.6484 35.8203 75.6172 35.5208 75.5547 35.2812C75.4974 35.0417 75.4062 34.8516 75.2812 34.7109C75.1615 34.5651 75.0104 34.4635 74.8281 34.4062C74.6458 34.349 74.4297 34.3203 74.1797 34.3203C73.513 34.3203 72.9583 34.4557 72.5156 34.7266C72.0781 34.9974 71.7135 35.3698 71.4219 35.8438V39.5938C71.4219 39.6875 71.4115 39.7604 71.3906 39.8125C71.375 39.8646 71.3516 39.9062 71.3203 39.9375C71.2891 39.9635 71.2552 39.9818 71.2188 39.9922C71.1875 39.9974 71.1562 40 71.125 40C71.0885 40 71.0495 39.9974 71.0078 39.9922C70.9714 39.987 70.9375 39.9714 70.9062 39.9453C70.875 39.9193 70.849 39.8802 70.8281 39.8281C70.8073 39.7708 70.7969 39.6927 70.7969 39.5938V35.8438C70.7969 35.3698 70.6849 34.9974 70.4609 34.7266C70.2422 34.4557 69.888 34.3203 69.3984 34.3203C69.0286 34.3203 68.6849 34.362 68.3672 34.4453C68.0495 34.5286 67.7656 34.6406 67.5156 34.7812C67.2708 34.9219 67.0651 35.0885 66.8984 35.2812C66.7318 35.4688 66.6172 35.6667 66.5547 35.875V39.5938C66.5547 39.776 66.5234 39.8906 66.4609 39.9375C66.4036 39.9792 66.3438 40 66.2812 40C66.2448 40 66.2057 39.9974 66.1641 39.9922C66.1224 39.987 66.0833 39.9714 66.0469 39.9453C66.0156 39.9193 65.987 39.8802 65.9609 39.8281C65.9401 39.7708 65.9297 39.6927 65.9297 39.5938V34.3984C65.9297 34.2318 65.9635 34.1276 66.0312 34.0859C66.099 34.0391 66.1719 34.0156 66.25 34.0156C66.3385 34.0156 66.4089 34.0391 66.4609 34.0859C66.5182 34.1276 66.5469 34.2318 66.5469 34.3984V35.3594C66.6302 35.125 66.7604 34.9141 66.9375 34.7266C67.1198 34.5391 67.3333 34.3828 67.5781 34.2578C67.8281 34.1276 68.1068 34.0286 68.4141 33.9609C68.7214 33.8932 69.0443 33.8594 69.3828 33.8594C69.7786 33.8594 70.0964 33.9141 70.3359 34.0234C70.5807 34.1276 70.7708 34.2578 70.9062 34.4141C71.0417 34.5651 71.1354 34.724 71.1875 34.8906C71.2448 35.0573 71.2865 35.2005 71.3125 35.3203C71.4062 35.1589 71.5312 34.9922 71.6875 34.8203C71.849 34.6484 72.0443 34.4922 72.2734 34.3516C72.5078 34.2057 72.7812 34.0885 73.0938 34C73.4062 33.9062 73.763 33.8594 74.1641 33.8594C74.8828 33.8594 75.4141 34.0443 75.7578 34.4141C76.1016 34.7786 76.2734 35.3672 76.2734 36.1797V39.5938C76.2734 39.6875 76.263 39.7604 76.2422 39.8125C76.2214 39.8646 76.1953 39.9062 76.1641 39.9375C76.138 39.9635 76.1068 39.9818 76.0703 39.9922C76.0339 39.9974 76 40 75.9688 40C75.9271 40 75.888 39.9974 75.8516 39.9922C75.8151 39.987 75.7812 39.9714 75.75 39.9453C75.7188 39.9193 75.6927 39.8802 75.6719 39.8281C75.6562 39.7708 75.6484 39.6927 75.6484 39.5938V36.1797ZM82.1094 34.3203C81.625 34.3203 81.1953 34.362 80.8203 34.4453C80.4453 34.5286 80.125 34.6641 79.8594 34.8516C79.599 35.0339 79.3958 35.2708 79.25 35.5625C79.1042 35.8542 79.0208 36.2109 79 36.6328H84.8906V36.2109C84.8906 35.9505 84.8411 35.7057 84.7422 35.4766C84.6484 35.2474 84.4922 35.0469 84.2734 34.875C84.0547 34.7031 83.7682 34.5677 83.4141 34.4688C83.0599 34.3698 82.625 34.3203 82.1094 34.3203ZM81.7031 39.6172C82.1979 39.6172 82.6302 39.5859 83 39.5234C83.3698 39.4609 83.6875 39.3854 83.9531 39.2969C84.2188 39.2083 84.4349 39.1172 84.6016 39.0234C84.7734 38.9297 84.9062 38.8516 85 38.7891C85.0312 38.7786 85.0521 38.7734 85.0625 38.7734C85.1198 38.7734 85.1719 38.8021 85.2188 38.8594C85.2708 38.9115 85.2969 38.9688 85.2969 39.0312C85.2969 39.0885 85.2708 39.1354 85.2188 39.1719C85.1719 39.2188 85.0703 39.2917 84.9141 39.3906C84.763 39.4896 84.5443 39.5911 84.2578 39.6953C83.9714 39.7943 83.6172 39.8828 83.1953 39.9609C82.7734 40.0391 82.2734 40.0781 81.6953 40.0781C81.0911 40.0781 80.5781 40.0026 80.1562 39.8516C79.7344 39.7005 79.3906 39.4896 79.125 39.2188C78.8594 38.9479 78.6667 38.6224 78.5469 38.2422C78.4271 37.862 78.3672 37.4453 78.3672 36.9922C78.3672 36.388 78.4635 35.8854 78.6562 35.4844C78.849 35.0833 79.112 34.763 79.4453 34.5234C79.7839 34.2786 80.1797 34.1068 80.6328 34.0078C81.0911 33.9089 81.5833 33.8594 82.1094 33.8594C83.1927 33.8594 84.0026 34.0677 84.5391 34.4844C85.0807 34.8958 85.3516 35.487 85.3516 36.2578C85.3516 36.3307 85.3464 36.4115 85.3359 36.5C85.3255 36.5885 85.3099 36.6745 85.2891 36.7578C85.2734 36.8359 85.2526 36.9036 85.2266 36.9609C85.2057 37.013 85.1849 37.0391 85.1641 37.0391H82.8672L78.9922 36.9609C79.0026 37.4453 79.0651 37.8568 79.1797 38.1953C79.2995 38.5286 79.4714 38.8021 79.6953 39.0156C79.9245 39.224 80.2057 39.3776 80.5391 39.4766C80.8724 39.5703 81.2604 39.6172 81.7031 39.6172Z" fill="#FF4500"/>
<path d="M235.36 43L231.58 36.4V35.52H232.02C232.727 35.52 233.32 35.4533 233.8 35.32C234.293 35.1867 234.68 34.9667 234.96 34.66C235.24 34.3533 235.407 33.9333 235.46 33.4H231.58V32.12H235.44C235.347 31.6267 235.16 31.2267 234.88 30.92C234.6 30.6 234.22 30.3667 233.74 30.22C233.273 30.0733 232.7 30 232.02 30H231.58V28.72H239.86V30H236.08C236.387 30.2533 236.64 30.5533 236.84 30.9C237.04 31.2467 237.167 31.6533 237.22 32.12H239.86V33.4H237.26C237.167 34.3733 236.793 35.1333 236.14 35.68C235.5 36.2133 234.647 36.5533 233.58 36.7L237.4 43H235.36ZM246.064 32.7656H242.578C242.493 32.7656 242.409 32.7656 242.324 32.7656C242.24 32.7656 242.161 32.7559 242.09 32.7363C242.025 32.7168 241.969 32.6875 241.924 32.6484C241.885 32.6029 241.865 32.541 241.865 32.4629C241.865 32.3652 241.888 32.2936 241.934 32.248C241.979 32.2025 242.035 32.1699 242.1 32.1504C242.171 32.1309 242.249 32.1211 242.334 32.1211C242.419 32.1211 242.5 32.1211 242.578 32.1211H250.381C250.479 32.1211 250.57 32.1211 250.654 32.1211C250.739 32.1211 250.811 32.1309 250.869 32.1504C250.934 32.1699 250.986 32.2025 251.025 32.248C251.064 32.2936 251.084 32.3587 251.084 32.4434C251.084 32.5345 251.064 32.6029 251.025 32.6484C250.986 32.6875 250.934 32.7168 250.869 32.7363C250.811 32.7559 250.739 32.7656 250.654 32.7656C250.57 32.7656 250.479 32.7656 250.381 32.7656H246.895V42.3555H250.381C250.479 42.3555 250.57 42.3555 250.654 42.3555C250.739 42.3555 250.811 42.3652 250.869 42.3848C250.934 42.4043 250.986 42.4368 251.025 42.4824C251.064 42.528 251.084 42.5931 251.084 42.6777C251.084 42.7689 251.064 42.8372 251.025 42.8828C250.986 42.9219 250.934 42.9512 250.869 42.9707C250.811 42.9902 250.739 43 250.654 43C250.57 43 250.479 43 250.381 43H242.578C242.5 43 242.419 43 242.334 43C242.249 43 242.171 42.9902 242.1 42.9707C242.035 42.9512 241.979 42.9186 241.934 42.873C241.888 42.8275 241.865 42.7559 241.865 42.6582C241.865 42.5801 241.885 42.5215 241.924 42.4824C241.969 42.4368 242.025 42.4043 242.09 42.3848C242.161 42.3652 242.24 42.3555 242.324 42.3555C242.409 42.3555 242.493 42.3555 242.578 42.3555H246.064V32.7656ZM261.533 42.2969C261.533 42.3815 261.527 42.4661 261.514 42.5508C261.501 42.6354 261.478 42.7103 261.445 42.7754C261.419 42.8405 261.38 42.8958 261.328 42.9414C261.276 42.9805 261.211 43 261.133 43C261.035 43 260.96 42.9805 260.908 42.9414C260.863 42.8958 260.827 42.8405 260.801 42.7754C260.775 42.7103 260.758 42.6354 260.752 42.5508C260.752 42.4661 260.752 42.3815 260.752 42.2969V38.918C260.752 38.4102 260.713 37.9674 260.635 37.5898C260.563 37.2122 260.417 36.8997 260.195 36.6523C259.98 36.3984 259.678 36.2096 259.287 36.0859C258.903 35.9622 258.398 35.9004 257.773 35.9004C257.389 35.9004 256.982 35.9329 256.553 35.998C256.123 36.0566 255.713 36.1641 255.322 36.3203C254.932 36.4701 254.587 36.6719 254.287 36.9258C253.988 37.1797 253.779 37.4987 253.662 37.8828V42.2969C253.662 42.3815 253.659 42.4661 253.652 42.5508C253.646 42.6354 253.63 42.7103 253.604 42.7754C253.577 42.8405 253.538 42.8958 253.486 42.9414C253.441 42.9805 253.379 43 253.301 43C253.21 43 253.135 42.9805 253.076 42.9414C253.024 42.8958 252.982 42.8405 252.949 42.7754C252.923 42.7103 252.904 42.6354 252.891 42.5508C252.884 42.4661 252.881 42.3815 252.881 42.2969V35.9688C252.881 35.8581 252.904 35.7572 252.949 35.666C252.995 35.5684 253.109 35.5195 253.291 35.5195C253.454 35.5195 253.555 35.5651 253.594 35.6562C253.639 35.7409 253.662 35.8451 253.662 35.9688V37.1992C253.844 36.7826 254.098 36.4505 254.424 36.2031C254.749 35.9492 255.104 35.7604 255.488 35.6367C255.879 35.5065 256.273 35.4219 256.67 35.3828C257.074 35.3438 257.441 35.3242 257.773 35.3242C258.477 35.3242 259.066 35.3861 259.541 35.5098C260.023 35.627 260.41 35.8255 260.703 36.1055C261.003 36.3854 261.214 36.7565 261.338 37.2188C261.468 37.6745 261.533 38.2409 261.533 38.918V42.2969ZM269.102 35.9004C268.353 35.9004 267.715 35.9622 267.188 36.0859C266.66 36.2096 266.227 36.4082 265.889 36.6816C265.557 36.9486 265.312 37.2936 265.156 37.7168C265 38.14 264.922 38.6478 264.922 39.2402C264.922 39.8392 265.007 40.347 265.176 40.7637C265.352 41.1803 265.612 41.5189 265.957 41.7793C266.309 42.0397 266.745 42.2285 267.266 42.3457C267.786 42.4629 268.395 42.5215 269.092 42.5215C269.404 42.5215 269.72 42.4987 270.039 42.4531C270.365 42.4076 270.674 42.3522 270.967 42.2871C271.26 42.2155 271.53 42.1374 271.777 42.0527C272.025 41.9681 272.227 41.8867 272.383 41.8086C272.48 41.776 272.549 41.7598 272.588 41.7598C272.673 41.7598 272.738 41.7858 272.783 41.8379C272.835 41.8835 272.861 41.9421 272.861 42.0137C272.861 42.0658 272.845 42.1211 272.812 42.1797C272.78 42.2318 272.728 42.2773 272.656 42.3164C272.083 42.6094 271.491 42.8145 270.879 42.9316C270.267 43.0423 269.674 43.0977 269.102 43.0977C268.359 43.0977 267.682 43.0391 267.07 42.9219C266.465 42.8047 265.944 42.5996 265.508 42.3066C265.078 42.0137 264.743 41.6198 264.502 41.125C264.261 40.6302 264.141 40.002 264.141 39.2402C264.141 38.485 264.251 37.8568 264.473 37.3555C264.694 36.8542 265.016 36.4538 265.439 36.1543C265.863 35.8483 266.38 35.6335 266.992 35.5098C267.611 35.3861 268.314 35.3242 269.102 35.3242C269.674 35.3242 270.267 35.3828 270.879 35.5C271.491 35.6107 272.083 35.8125 272.656 36.1055C272.728 36.1445 272.78 36.1934 272.812 36.252C272.845 36.304 272.861 36.3561 272.861 36.4082C272.861 36.4798 272.835 36.5417 272.783 36.5938C272.738 36.6393 272.673 36.6621 272.588 36.6621C272.549 36.6621 272.48 36.6458 272.383 36.6133C272.227 36.5352 272.025 36.4538 271.777 36.3691C271.53 36.2845 271.26 36.2096 270.967 36.1445C270.674 36.0729 270.365 36.0143 270.039 35.9688C269.72 35.9232 269.408 35.9004 269.102 35.9004Z" fill="#FF4500"/>
<rect x="17.5" y="79.5" width="264" height="45" rx="14.5" stroke="#FF4500"/>
<path d="M38.2734 105.727C38.2734 105.805 38.2604 105.862 38.2344 105.898C38.2083 105.935 38.1719 105.961 38.125 105.977C38.0833 105.992 38.0312 106 37.9688 106C37.9062 106 37.8359 106 37.7578 106H30.4609C30.4089 106 30.3698 105.997 30.3438 105.992C30.3177 105.987 30.2969 105.974 30.2812 105.953C30.2708 105.932 30.263 105.906 30.2578 105.875C30.2578 105.839 30.2578 105.789 30.2578 105.727V97.6641C30.2578 97.5859 30.2578 97.5234 30.2578 97.4766C30.263 97.4297 30.2734 97.3932 30.2891 97.3672C30.3047 97.3411 30.3307 97.3229 30.3672 97.3125C30.4089 97.3021 30.4688 97.2969 30.5469 97.2969H37.6797C37.7578 97.2969 37.8307 97.2969 37.8984 97.2969C37.9661 97.2969 38.026 97.3047 38.0781 97.3203C38.1354 97.3359 38.1797 97.362 38.2109 97.3984C38.2422 97.4349 38.2578 97.4922 38.2578 97.5703C38.2578 97.6328 38.2422 97.6823 38.2109 97.7188C38.1797 97.75 38.1354 97.7734 38.0781 97.7891C38.026 97.8047 37.9661 97.8125 37.8984 97.8125C37.8307 97.8125 37.7578 97.8125 37.6797 97.8125H30.9219V101.234H37.6406C37.7552 101.234 37.8516 101.25 37.9297 101.281C38.0078 101.312 38.0469 101.38 38.0469 101.484C38.0469 101.599 38.013 101.674 37.9453 101.711C37.8828 101.747 37.7995 101.766 37.6953 101.766H30.9219V105.484H37.6953C37.7734 105.484 37.8464 105.484 37.9141 105.484C37.9818 105.484 38.0417 105.492 38.0938 105.508C38.151 105.523 38.1953 105.549 38.2266 105.586C38.2578 105.617 38.2734 105.664 38.2734 105.727ZM46.4766 105.453C46.5911 105.562 46.6484 105.674 46.6484 105.789C46.6484 105.945 46.5651 106.023 46.3984 106.023C46.3099 106.023 46.2057 105.971 46.0859 105.867L43.3438 103.367L40.6016 105.867C40.5339 105.924 40.474 105.966 40.4219 105.992C40.375 106.013 40.3255 106.023 40.2734 106.023C40.112 106.023 40.0312 105.943 40.0312 105.781C40.0312 105.677 40.0911 105.568 40.2109 105.453L42.9219 102.977L40.1797 100.547C40.0755 100.458 40.0234 100.362 40.0234 100.258C40.0234 100.19 40.0469 100.133 40.0938 100.086C40.1458 100.039 40.2083 100.016 40.2812 100.016C40.3854 100.016 40.4922 100.062 40.6016 100.156L43.3438 102.594L46.0859 100.156C46.1849 100.062 46.2891 100.016 46.3984 100.016C46.4714 100.016 46.5312 100.039 46.5781 100.086C46.6302 100.128 46.6562 100.185 46.6562 100.258C46.6562 100.357 46.6068 100.453 46.5078 100.547L43.7656 102.977L46.4766 105.453ZM53.1797 99.8594C53.6484 99.8594 54.0911 99.9089 54.5078 100.008C54.9297 100.102 55.2969 100.266 55.6094 100.5C55.9271 100.734 56.1771 101.047 56.3594 101.438C56.5469 101.828 56.6406 102.318 56.6406 102.906C56.6406 103.49 56.5625 103.984 56.4062 104.391C56.2552 104.792 56.0312 105.117 55.7344 105.367C55.4427 105.617 55.0807 105.799 54.6484 105.914C54.2214 106.023 53.7318 106.078 53.1797 106.078C52.7578 106.078 52.3698 106.052 52.0156 106C51.6615 105.948 51.3385 105.883 51.0469 105.805C50.7604 105.721 50.5026 105.63 50.2734 105.531C50.0443 105.432 49.8411 105.336 49.6641 105.242L49.6484 108.086C49.6484 108.154 49.6458 108.219 49.6406 108.281C49.6406 108.349 49.6302 108.409 49.6094 108.461C49.5885 108.513 49.5573 108.555 49.5156 108.586C49.4792 108.617 49.4219 108.633 49.3438 108.633C49.2656 108.633 49.2057 108.615 49.1641 108.578C49.1276 108.547 49.099 108.503 49.0781 108.445C49.0573 108.393 49.0443 108.331 49.0391 108.258C49.0391 108.19 49.0391 108.117 49.0391 108.039V100.398C49.0391 100.232 49.0703 100.128 49.1328 100.086C49.1953 100.039 49.263 100.016 49.3359 100.016C49.4245 100.016 49.4948 100.039 49.5469 100.086C49.599 100.128 49.625 100.232 49.625 100.398V101.43C49.6875 101.211 49.7943 101.021 49.9453 100.859C50.0964 100.693 50.2734 100.552 50.4766 100.438C50.6797 100.318 50.8984 100.221 51.1328 100.148C51.3724 100.07 51.612 100.01 51.8516 99.9688C52.0964 99.9271 52.3333 99.8984 52.5625 99.8828C52.7917 99.8672 52.9974 99.8594 53.1797 99.8594ZM53.1797 100.32C52.8672 100.326 52.526 100.352 52.1562 100.398C51.7865 100.44 51.4323 100.518 51.0938 100.633C50.7552 100.747 50.4557 100.906 50.1953 101.109C49.9349 101.312 49.7578 101.578 49.6641 101.906V104.906C49.888 104.99 50.1276 105.076 50.3828 105.164C50.6432 105.247 50.9193 105.323 51.2109 105.391C51.5026 105.458 51.8125 105.513 52.1406 105.555C52.4688 105.596 52.8151 105.617 53.1797 105.617C53.6797 105.617 54.1068 105.565 54.4609 105.461C54.8203 105.357 55.1146 105.195 55.3438 104.977C55.5781 104.753 55.7474 104.471 55.8516 104.133C55.9609 103.789 56.0156 103.38 56.0156 102.906C56.0156 102.417 55.9401 102.005 55.7891 101.672C55.6432 101.339 55.4427 101.073 55.1875 100.875C54.9323 100.677 54.6302 100.536 54.2812 100.453C53.9375 100.365 53.5703 100.32 53.1797 100.32ZM71.2188 105V97.8906C71.2188 97.8125 71.2214 97.7396 71.2266 97.6719C71.2318 97.599 71.2448 97.5365 71.2656 97.4844C71.2917 97.4271 71.3255 97.3828 71.3672 97.3516C71.4141 97.3151 71.4766 97.2969 71.5547 97.2969C71.6901 97.2969 71.7786 97.3568 71.8203 97.4766C71.862 97.5911 71.8828 97.7292 71.8828 97.8906V105.5C71.8828 105.833 71.7943 106 71.6172 106C71.4974 106 71.349 105.919 71.1719 105.758L63.1172 98.2969V105.453C63.1172 105.604 63.0938 105.734 63.0469 105.844C63.0052 105.948 62.9219 106 62.7969 106C62.6458 106 62.5495 105.948 62.5078 105.844C62.4714 105.734 62.4531 105.604 62.4531 105.453V97.8047C62.4531 97.6484 62.4818 97.5286 62.5391 97.4453C62.5964 97.362 62.6745 97.3203 62.7734 97.3203C62.9036 97.3203 63.0547 97.3984 63.2266 97.5547L71.2188 105ZM74.7031 104.25C74.7031 104.5 74.7656 104.711 74.8906 104.883C75.0208 105.055 75.2005 105.195 75.4297 105.305C75.6589 105.414 75.9297 105.495 76.2422 105.547C76.5599 105.594 76.9062 105.617 77.2812 105.617C77.7396 105.617 78.1458 105.586 78.5 105.523C78.8542 105.456 79.1641 105.372 79.4297 105.273C79.6953 105.174 79.9193 105.068 80.1016 104.953C80.2839 104.833 80.4349 104.719 80.5547 104.609V103.039C80.0339 102.966 79.4948 102.898 78.9375 102.836C78.3802 102.768 77.8177 102.734 77.25 102.734C76.849 102.734 76.4896 102.758 76.1719 102.805C75.8594 102.852 75.5938 102.932 75.375 103.047C75.1562 103.161 74.9896 103.318 74.875 103.516C74.7604 103.708 74.7031 103.953 74.7031 104.25ZM78.0234 100.32C77.5234 100.32 77.0964 100.333 76.7422 100.359C76.388 100.385 76.0833 100.419 75.8281 100.461C75.5781 100.503 75.3672 100.547 75.1953 100.594C75.0234 100.641 74.8724 100.688 74.7422 100.734C74.6797 100.734 74.6224 100.703 74.5703 100.641C74.5182 100.578 74.4922 100.51 74.4922 100.438C74.4922 100.37 74.5234 100.32 74.5859 100.289C74.6276 100.268 74.724 100.234 74.875 100.188C75.0312 100.141 75.2474 100.094 75.5234 100.047C75.8047 99.9948 76.151 99.9505 76.5625 99.9141C76.9792 99.8776 77.4688 99.8594 78.0312 99.8594C78.2969 99.8594 78.5599 99.8776 78.8203 99.9141C79.0807 99.9453 79.3255 100.005 79.5547 100.094C79.7891 100.182 80.0052 100.305 80.2031 100.461C80.4062 100.617 80.5781 100.82 80.7188 101.07C80.8646 101.315 80.9792 101.615 81.0625 101.969C81.1458 102.318 81.1875 102.729 81.1875 103.203V105.453C81.1875 105.516 81.1849 105.578 81.1797 105.641C81.1745 105.703 81.1589 105.763 81.1328 105.82C81.112 105.872 81.0807 105.917 81.0391 105.953C80.9974 105.984 80.9401 106 80.8672 106C80.7474 106 80.6641 105.945 80.6172 105.836C80.5755 105.727 80.5547 105.589 80.5547 105.422V104.883C80.4505 105.013 80.3151 105.148 80.1484 105.289C79.9818 105.43 79.7708 105.56 79.5156 105.68C79.2604 105.794 78.9557 105.891 78.6016 105.969C78.2474 106.042 77.8281 106.078 77.3438 106.078C76.8906 106.078 76.4635 106.044 76.0625 105.977C75.6667 105.909 75.3203 105.802 75.0234 105.656C74.7318 105.51 74.5 105.323 74.3281 105.094C74.1615 104.859 74.0781 104.578 74.0781 104.25C74.0781 103.87 74.1562 103.555 74.3125 103.305C74.474 103.049 74.6953 102.846 74.9766 102.695C75.2578 102.539 75.5859 102.43 75.9609 102.367C76.3411 102.305 76.75 102.273 77.1875 102.273C77.5156 102.273 77.8438 102.286 78.1719 102.312C78.5052 102.333 78.8203 102.367 79.1172 102.414C79.4141 102.456 79.6849 102.51 79.9297 102.578C80.1797 102.641 80.388 102.716 80.5547 102.805C80.5547 102.273 80.4844 101.846 80.3438 101.523C80.2031 101.201 80.0156 100.951 79.7812 100.773C79.5469 100.591 79.276 100.471 78.9688 100.414C78.6667 100.352 78.3516 100.32 78.0234 100.32ZM93.3047 102.18C93.3047 101.82 93.2734 101.521 93.2109 101.281C93.1536 101.042 93.0625 100.852 92.9375 100.711C92.8177 100.565 92.6667 100.464 92.4844 100.406C92.3021 100.349 92.0859 100.32 91.8359 100.32C91.1693 100.32 90.6146 100.456 90.1719 100.727C89.7344 100.997 89.3698 101.37 89.0781 101.844V105.594C89.0781 105.688 89.0677 105.76 89.0469 105.812C89.0312 105.865 89.0078 105.906 88.9766 105.938C88.9453 105.964 88.9115 105.982 88.875 105.992C88.8438 105.997 88.8125 106 88.7812 106C88.7448 106 88.7057 105.997 88.6641 105.992C88.6276 105.987 88.5938 105.971 88.5625 105.945C88.5312 105.919 88.5052 105.88 88.4844 105.828C88.4635 105.771 88.4531 105.693 88.4531 105.594V101.844C88.4531 101.37 88.3411 100.997 88.1172 100.727C87.8984 100.456 87.5443 100.32 87.0547 100.32C86.6849 100.32 86.3411 100.362 86.0234 100.445C85.7057 100.529 85.4219 100.641 85.1719 100.781C84.9271 100.922 84.7214 101.089 84.5547 101.281C84.388 101.469 84.2734 101.667 84.2109 101.875V105.594C84.2109 105.776 84.1797 105.891 84.1172 105.938C84.0599 105.979 84 106 83.9375 106C83.901 106 83.862 105.997 83.8203 105.992C83.7786 105.987 83.7396 105.971 83.7031 105.945C83.6719 105.919 83.6432 105.88 83.6172 105.828C83.5964 105.771 83.5859 105.693 83.5859 105.594V100.398C83.5859 100.232 83.6198 100.128 83.6875 100.086C83.7552 100.039 83.8281 100.016 83.9062 100.016C83.9948 100.016 84.0651 100.039 84.1172 100.086C84.1745 100.128 84.2031 100.232 84.2031 100.398V101.359C84.2865 101.125 84.4167 100.914 84.5938 100.727C84.776 100.539 84.9896 100.383 85.2344 100.258C85.4844 100.128 85.763 100.029 86.0703 99.9609C86.3776 99.8932 86.7005 99.8594 87.0391 99.8594C87.4349 99.8594 87.7526 99.9141 87.9922 100.023C88.237 100.128 88.4271 100.258 88.5625 100.414C88.6979 100.565 88.7917 100.724 88.8438 100.891C88.901 101.057 88.9427 101.201 88.9688 101.32C89.0625 101.159 89.1875 100.992 89.3438 100.82C89.5052 100.648 89.7005 100.492 89.9297 100.352C90.1641 100.206 90.4375 100.089 90.75 100C91.0625 99.9062 91.4193 99.8594 91.8203 99.8594C92.5391 99.8594 93.0703 100.044 93.4141 100.414C93.7578 100.779 93.9297 101.367 93.9297 102.18V105.594C93.9297 105.688 93.9193 105.76 93.8984 105.812C93.8776 105.865 93.8516 105.906 93.8203 105.938C93.7943 105.964 93.763 105.982 93.7266 105.992C93.6901 105.997 93.6562 106 93.625 106C93.5833 106 93.5443 105.997 93.5078 105.992C93.4714 105.987 93.4375 105.971 93.4062 105.945C93.375 105.919 93.349 105.88 93.3281 105.828C93.3125 105.771 93.3047 105.693 93.3047 105.594V102.18ZM99.7656 100.32C99.2812 100.32 98.8516 100.362 98.4766 100.445C98.1016 100.529 97.7812 100.664 97.5156 100.852C97.2552 101.034 97.0521 101.271 96.9062 101.562C96.7604 101.854 96.6771 102.211 96.6562 102.633H102.547V102.211C102.547 101.951 102.497 101.706 102.398 101.477C102.305 101.247 102.148 101.047 101.93 100.875C101.711 100.703 101.424 100.568 101.07 100.469C100.716 100.37 100.281 100.32 99.7656 100.32ZM99.3594 105.617C99.8542 105.617 100.286 105.586 100.656 105.523C101.026 105.461 101.344 105.385 101.609 105.297C101.875 105.208 102.091 105.117 102.258 105.023C102.43 104.93 102.562 104.852 102.656 104.789C102.688 104.779 102.708 104.773 102.719 104.773C102.776 104.773 102.828 104.802 102.875 104.859C102.927 104.911 102.953 104.969 102.953 105.031C102.953 105.089 102.927 105.135 102.875 105.172C102.828 105.219 102.727 105.292 102.57 105.391C102.419 105.49 102.201 105.591 101.914 105.695C101.628 105.794 101.273 105.883 100.852 105.961C100.43 106.039 99.9297 106.078 99.3516 106.078C98.7474 106.078 98.2344 106.003 97.8125 105.852C97.3906 105.701 97.0469 105.49 96.7812 105.219C96.5156 104.948 96.3229 104.622 96.2031 104.242C96.0833 103.862 96.0234 103.445 96.0234 102.992C96.0234 102.388 96.1198 101.885 96.3125 101.484C96.5052 101.083 96.7682 100.763 97.1016 100.523C97.4401 100.279 97.8359 100.107 98.2891 100.008C98.7474 99.9089 99.2396 99.8594 99.7656 99.8594C100.849 99.8594 101.659 100.068 102.195 100.484C102.737 100.896 103.008 101.487 103.008 102.258C103.008 102.331 103.003 102.411 102.992 102.5C102.982 102.589 102.966 102.674 102.945 102.758C102.93 102.836 102.909 102.904 102.883 102.961C102.862 103.013 102.841 103.039 102.82 103.039H100.523L96.6484 102.961C96.6589 103.445 96.7214 103.857 96.8359 104.195C96.9557 104.529 97.1276 104.802 97.3516 105.016C97.5807 105.224 97.862 105.378 98.1953 105.477C98.5286 105.57 98.9167 105.617 99.3594 105.617Z" fill="#FF4500"/>
<path d="M232.36 109L228.58 102.4V101.52H229.02C229.727 101.52 230.32 101.453 230.8 101.32C231.293 101.187 231.68 100.967 231.96 100.66C232.24 100.353 232.407 99.9333 232.46 99.4H228.58V98.12H232.44C232.347 97.6267 232.16 97.2267 231.88 96.92C231.6 96.6 231.22 96.3667 230.74 96.22C230.273 96.0733 229.7 96 229.02 96H228.58V94.72H236.86V96H233.08C233.387 96.2533 233.64 96.5533 233.84 96.9C234.04 97.2467 234.167 97.6533 234.22 98.12H236.86V99.4H234.26C234.167 100.373 233.793 101.133 233.14 101.68C232.5 102.213 231.647 102.553 230.58 102.7L234.4 109H232.36ZM250.037 108.658C250.037 108.756 250.021 108.827 249.988 108.873C249.956 108.919 249.91 108.951 249.852 108.971C249.799 108.99 249.734 109 249.656 109C249.578 109 249.49 109 249.393 109H240.271C240.206 109 240.158 108.997 240.125 108.99C240.092 108.984 240.066 108.967 240.047 108.941C240.034 108.915 240.024 108.883 240.018 108.844C240.018 108.798 240.018 108.736 240.018 108.658V98.5801C240.018 98.4824 240.018 98.4043 240.018 98.3457C240.024 98.2871 240.037 98.2415 240.057 98.209C240.076 98.1764 240.109 98.1536 240.154 98.1406C240.206 98.1276 240.281 98.1211 240.379 98.1211H249.295C249.393 98.1211 249.484 98.1211 249.568 98.1211C249.653 98.1211 249.728 98.1309 249.793 98.1504C249.865 98.1699 249.92 98.2025 249.959 98.248C249.998 98.2936 250.018 98.3652 250.018 98.4629C250.018 98.541 249.998 98.6029 249.959 98.6484C249.92 98.6875 249.865 98.7168 249.793 98.7363C249.728 98.7559 249.653 98.7656 249.568 98.7656C249.484 98.7656 249.393 98.7656 249.295 98.7656H240.848V103.043H249.246C249.389 103.043 249.51 103.062 249.607 103.102C249.705 103.141 249.754 103.225 249.754 103.355C249.754 103.499 249.712 103.593 249.627 103.639C249.549 103.684 249.445 103.707 249.314 103.707H240.848V108.355H249.314C249.412 108.355 249.503 108.355 249.588 108.355C249.673 108.355 249.747 108.365 249.812 108.385C249.884 108.404 249.939 108.437 249.979 108.482C250.018 108.521 250.037 108.58 250.037 108.658ZM260.291 108.316C260.434 108.453 260.506 108.593 260.506 108.736C260.506 108.932 260.402 109.029 260.193 109.029C260.083 109.029 259.952 108.964 259.803 108.834L256.375 105.709L252.947 108.834C252.863 108.906 252.788 108.958 252.723 108.99C252.664 109.016 252.602 109.029 252.537 109.029C252.335 109.029 252.234 108.928 252.234 108.727C252.234 108.596 252.309 108.46 252.459 108.316L255.848 105.221L252.42 102.184C252.29 102.073 252.225 101.952 252.225 101.822C252.225 101.738 252.254 101.666 252.312 101.607C252.378 101.549 252.456 101.52 252.547 101.52C252.677 101.52 252.811 101.578 252.947 101.695L256.375 104.742L259.803 101.695C259.926 101.578 260.057 101.52 260.193 101.52C260.285 101.52 260.359 101.549 260.418 101.607C260.483 101.66 260.516 101.731 260.516 101.822C260.516 101.946 260.454 102.066 260.33 102.184L256.902 105.221L260.291 108.316ZM268.67 101.324C269.256 101.324 269.809 101.386 270.33 101.51C270.857 101.627 271.316 101.832 271.707 102.125C272.104 102.418 272.417 102.809 272.645 103.297C272.879 103.785 272.996 104.397 272.996 105.133C272.996 105.862 272.898 106.48 272.703 106.988C272.514 107.49 272.234 107.896 271.863 108.209C271.499 108.521 271.046 108.749 270.506 108.893C269.972 109.029 269.36 109.098 268.67 109.098C268.143 109.098 267.658 109.065 267.215 109C266.772 108.935 266.368 108.854 266.004 108.756C265.646 108.652 265.324 108.538 265.037 108.414C264.751 108.29 264.497 108.17 264.275 108.053L264.256 111.607C264.256 111.692 264.253 111.773 264.246 111.852C264.246 111.936 264.233 112.011 264.207 112.076C264.181 112.141 264.142 112.193 264.09 112.232C264.044 112.271 263.973 112.291 263.875 112.291C263.777 112.291 263.702 112.268 263.65 112.223C263.605 112.184 263.569 112.128 263.543 112.057C263.517 111.992 263.501 111.913 263.494 111.822C263.494 111.738 263.494 111.646 263.494 111.549V101.998C263.494 101.79 263.533 101.66 263.611 101.607C263.689 101.549 263.774 101.52 263.865 101.52C263.976 101.52 264.064 101.549 264.129 101.607C264.194 101.66 264.227 101.79 264.227 101.998V103.287C264.305 103.014 264.438 102.776 264.627 102.574C264.816 102.366 265.037 102.19 265.291 102.047C265.545 101.897 265.818 101.777 266.111 101.686C266.411 101.588 266.71 101.513 267.01 101.461C267.316 101.409 267.612 101.373 267.898 101.354C268.185 101.334 268.442 101.324 268.67 101.324ZM268.67 101.9C268.279 101.907 267.853 101.939 267.391 101.998C266.928 102.05 266.486 102.148 266.062 102.291C265.639 102.434 265.265 102.633 264.939 102.887C264.614 103.141 264.393 103.473 264.275 103.883V107.633C264.555 107.737 264.855 107.844 265.174 107.955C265.499 108.059 265.844 108.154 266.209 108.238C266.574 108.323 266.961 108.391 267.371 108.443C267.781 108.495 268.214 108.521 268.67 108.521C269.295 108.521 269.829 108.456 270.271 108.326C270.721 108.196 271.089 107.994 271.375 107.721C271.668 107.441 271.88 107.089 272.01 106.666C272.146 106.236 272.215 105.725 272.215 105.133C272.215 104.521 272.12 104.007 271.932 103.59C271.749 103.173 271.499 102.841 271.18 102.594C270.861 102.346 270.483 102.171 270.047 102.066C269.617 101.956 269.158 101.9 268.67 101.9Z" fill="#FF4500"/>
<rect x="17.5" y="145.5" width="264" height="45" rx="14.5" stroke="#FF4500"/>
<path d="M38.2734 171.727C38.2734 171.805 38.2604 171.862 38.2344 171.898C38.2083 171.935 38.1719 171.961 38.125 171.977C38.0833 171.992 38.0312 172 37.9688 172C37.9062 172 37.8359 172 37.7578 172H30.4609C30.4089 172 30.3698 171.997 30.3438 171.992C30.3177 171.987 30.2969 171.974 30.2812 171.953C30.2708 171.932 30.263 171.906 30.2578 171.875C30.2578 171.839 30.2578 171.789 30.2578 171.727V163.664C30.2578 163.586 30.2578 163.523 30.2578 163.477C30.263 163.43 30.2734 163.393 30.2891 163.367C30.3047 163.341 30.3307 163.323 30.3672 163.312C30.4089 163.302 30.4688 163.297 30.5469 163.297H37.6797C37.7578 163.297 37.8307 163.297 37.8984 163.297C37.9661 163.297 38.026 163.305 38.0781 163.32C38.1354 163.336 38.1797 163.362 38.2109 163.398C38.2422 163.435 38.2578 163.492 38.2578 163.57C38.2578 163.633 38.2422 163.682 38.2109 163.719C38.1797 163.75 38.1354 163.773 38.0781 163.789C38.026 163.805 37.9661 163.812 37.8984 163.812C37.8307 163.812 37.7578 163.812 37.6797 163.812H30.9219V167.234H37.6406C37.7552 167.234 37.8516 167.25 37.9297 167.281C38.0078 167.312 38.0469 167.38 38.0469 167.484C38.0469 167.599 38.013 167.674 37.9453 167.711C37.8828 167.747 37.7995 167.766 37.6953 167.766H30.9219V171.484H37.6953C37.7734 171.484 37.8464 171.484 37.9141 171.484C37.9818 171.484 38.0417 171.492 38.0938 171.508C38.151 171.523 38.1953 171.549 38.2266 171.586C38.2578 171.617 38.2734 171.664 38.2734 171.727ZM46.4766 171.453C46.5911 171.562 46.6484 171.674 46.6484 171.789C46.6484 171.945 46.5651 172.023 46.3984 172.023C46.3099 172.023 46.2057 171.971 46.0859 171.867L43.3438 169.367L40.6016 171.867C40.5339 171.924 40.474 171.966 40.4219 171.992C40.375 172.013 40.3255 172.023 40.2734 172.023C40.112 172.023 40.0312 171.943 40.0312 171.781C40.0312 171.677 40.0911 171.568 40.2109 171.453L42.9219 168.977L40.1797 166.547C40.0755 166.458 40.0234 166.362 40.0234 166.258C40.0234 166.19 40.0469 166.133 40.0938 166.086C40.1458 166.039 40.2083 166.016 40.2812 166.016C40.3854 166.016 40.4922 166.062 40.6016 166.156L43.3438 168.594L46.0859 166.156C46.1849 166.062 46.2891 166.016 46.3984 166.016C46.4714 166.016 46.5312 166.039 46.5781 166.086C46.6302 166.128 46.6562 166.185 46.6562 166.258C46.6562 166.357 46.6068 166.453 46.5078 166.547L43.7656 168.977L46.4766 171.453ZM53.1797 165.859C53.6484 165.859 54.0911 165.909 54.5078 166.008C54.9297 166.102 55.2969 166.266 55.6094 166.5C55.9271 166.734 56.1771 167.047 56.3594 167.438C56.5469 167.828 56.6406 168.318 56.6406 168.906C56.6406 169.49 56.5625 169.984 56.4062 170.391C56.2552 170.792 56.0312 171.117 55.7344 171.367C55.4427 171.617 55.0807 171.799 54.6484 171.914C54.2214 172.023 53.7318 172.078 53.1797 172.078C52.7578 172.078 52.3698 172.052 52.0156 172C51.6615 171.948 51.3385 171.883 51.0469 171.805C50.7604 171.721 50.5026 171.63 50.2734 171.531C50.0443 171.432 49.8411 171.336 49.6641 171.242L49.6484 174.086C49.6484 174.154 49.6458 174.219 49.6406 174.281C49.6406 174.349 49.6302 174.409 49.6094 174.461C49.5885 174.513 49.5573 174.555 49.5156 174.586C49.4792 174.617 49.4219 174.633 49.3438 174.633C49.2656 174.633 49.2057 174.615 49.1641 174.578C49.1276 174.547 49.099 174.503 49.0781 174.445C49.0573 174.393 49.0443 174.331 49.0391 174.258C49.0391 174.19 49.0391 174.117 49.0391 174.039V166.398C49.0391 166.232 49.0703 166.128 49.1328 166.086C49.1953 166.039 49.263 166.016 49.3359 166.016C49.4245 166.016 49.4948 166.039 49.5469 166.086C49.599 166.128 49.625 166.232 49.625 166.398V167.43C49.6875 167.211 49.7943 167.021 49.9453 166.859C50.0964 166.693 50.2734 166.552 50.4766 166.438C50.6797 166.318 50.8984 166.221 51.1328 166.148C51.3724 166.07 51.612 166.01 51.8516 165.969C52.0964 165.927 52.3333 165.898 52.5625 165.883C52.7917 165.867 52.9974 165.859 53.1797 165.859ZM53.1797 166.32C52.8672 166.326 52.526 166.352 52.1562 166.398C51.7865 166.44 51.4323 166.518 51.0938 166.633C50.7552 166.747 50.4557 166.906 50.1953 167.109C49.9349 167.312 49.7578 167.578 49.6641 167.906V170.906C49.888 170.99 50.1276 171.076 50.3828 171.164C50.6432 171.247 50.9193 171.323 51.2109 171.391C51.5026 171.458 51.8125 171.513 52.1406 171.555C52.4688 171.596 52.8151 171.617 53.1797 171.617C53.6797 171.617 54.1068 171.565 54.4609 171.461C54.8203 171.357 55.1146 171.195 55.3438 170.977C55.5781 170.753 55.7474 170.471 55.8516 170.133C55.9609 169.789 56.0156 169.38 56.0156 168.906C56.0156 168.417 55.9401 168.005 55.7891 167.672C55.6432 167.339 55.4427 167.073 55.1875 166.875C54.9323 166.677 54.6302 166.536 54.2812 166.453C53.9375 166.365 53.5703 166.32 53.1797 166.32ZM71.2188 171V163.891C71.2188 163.812 71.2214 163.74 71.2266 163.672C71.2318 163.599 71.2448 163.536 71.2656 163.484C71.2917 163.427 71.3255 163.383 71.3672 163.352C71.4141 163.315 71.4766 163.297 71.5547 163.297C71.6901 163.297 71.7786 163.357 71.8203 163.477C71.862 163.591 71.8828 163.729 71.8828 163.891V171.5C71.8828 171.833 71.7943 172 71.6172 172C71.4974 172 71.349 171.919 71.1719 171.758L63.1172 164.297V171.453C63.1172 171.604 63.0938 171.734 63.0469 171.844C63.0052 171.948 62.9219 172 62.7969 172C62.6458 172 62.5495 171.948 62.5078 171.844C62.4714 171.734 62.4531 171.604 62.4531 171.453V163.805C62.4531 163.648 62.4818 163.529 62.5391 163.445C62.5964 163.362 62.6745 163.32 62.7734 163.32C62.9036 163.32 63.0547 163.398 63.2266 163.555L71.2188 171ZM74.7031 170.25C74.7031 170.5 74.7656 170.711 74.8906 170.883C75.0208 171.055 75.2005 171.195 75.4297 171.305C75.6589 171.414 75.9297 171.495 76.2422 171.547C76.5599 171.594 76.9062 171.617 77.2812 171.617C77.7396 171.617 78.1458 171.586 78.5 171.523C78.8542 171.456 79.1641 171.372 79.4297 171.273C79.6953 171.174 79.9193 171.068 80.1016 170.953C80.2839 170.833 80.4349 170.719 80.5547 170.609V169.039C80.0339 168.966 79.4948 168.898 78.9375 168.836C78.3802 168.768 77.8177 168.734 77.25 168.734C76.849 168.734 76.4896 168.758 76.1719 168.805C75.8594 168.852 75.5938 168.932 75.375 169.047C75.1562 169.161 74.9896 169.318 74.875 169.516C74.7604 169.708 74.7031 169.953 74.7031 170.25ZM78.0234 166.32C77.5234 166.32 77.0964 166.333 76.7422 166.359C76.388 166.385 76.0833 166.419 75.8281 166.461C75.5781 166.503 75.3672 166.547 75.1953 166.594C75.0234 166.641 74.8724 166.688 74.7422 166.734C74.6797 166.734 74.6224 166.703 74.5703 166.641C74.5182 166.578 74.4922 166.51 74.4922 166.438C74.4922 166.37 74.5234 166.32 74.5859 166.289C74.6276 166.268 74.724 166.234 74.875 166.188C75.0312 166.141 75.2474 166.094 75.5234 166.047C75.8047 165.995 76.151 165.951 76.5625 165.914C76.9792 165.878 77.4688 165.859 78.0312 165.859C78.2969 165.859 78.5599 165.878 78.8203 165.914C79.0807 165.945 79.3255 166.005 79.5547 166.094C79.7891 166.182 80.0052 166.305 80.2031 166.461C80.4062 166.617 80.5781 166.82 80.7188 167.07C80.8646 167.315 80.9792 167.615 81.0625 167.969C81.1458 168.318 81.1875 168.729 81.1875 169.203V171.453C81.1875 171.516 81.1849 171.578 81.1797 171.641C81.1745 171.703 81.1589 171.763 81.1328 171.82C81.112 171.872 81.0807 171.917 81.0391 171.953C80.9974 171.984 80.9401 172 80.8672 172C80.7474 172 80.6641 171.945 80.6172 171.836C80.5755 171.727 80.5547 171.589 80.5547 171.422V170.883C80.4505 171.013 80.3151 171.148 80.1484 171.289C79.9818 171.43 79.7708 171.56 79.5156 171.68C79.2604 171.794 78.9557 171.891 78.6016 171.969C78.2474 172.042 77.8281 172.078 77.3438 172.078C76.8906 172.078 76.4635 172.044 76.0625 171.977C75.6667 171.909 75.3203 171.802 75.0234 171.656C74.7318 171.51 74.5 171.323 74.3281 171.094C74.1615 170.859 74.0781 170.578 74.0781 170.25C74.0781 169.87 74.1562 169.555 74.3125 169.305C74.474 169.049 74.6953 168.846 74.9766 168.695C75.2578 168.539 75.5859 168.43 75.9609 168.367C76.3411 168.305 76.75 168.273 77.1875 168.273C77.5156 168.273 77.8438 168.286 78.1719 168.312C78.5052 168.333 78.8203 168.367 79.1172 168.414C79.4141 168.456 79.6849 168.51 79.9297 168.578C80.1797 168.641 80.388 168.716 80.5547 168.805C80.5547 168.273 80.4844 167.846 80.3438 167.523C80.2031 167.201 80.0156 166.951 79.7812 166.773C79.5469 166.591 79.276 166.471 78.9688 166.414C78.6667 166.352 78.3516 166.32 78.0234 166.32ZM93.3047 168.18C93.3047 167.82 93.2734 167.521 93.2109 167.281C93.1536 167.042 93.0625 166.852 92.9375 166.711C92.8177 166.565 92.6667 166.464 92.4844 166.406C92.3021 166.349 92.0859 166.32 91.8359 166.32C91.1693 166.32 90.6146 166.456 90.1719 166.727C89.7344 166.997 89.3698 167.37 89.0781 167.844V171.594C89.0781 171.688 89.0677 171.76 89.0469 171.812C89.0312 171.865 89.0078 171.906 88.9766 171.938C88.9453 171.964 88.9115 171.982 88.875 171.992C88.8438 171.997 88.8125 172 88.7812 172C88.7448 172 88.7057 171.997 88.6641 171.992C88.6276 171.987 88.5938 171.971 88.5625 171.945C88.5312 171.919 88.5052 171.88 88.4844 171.828C88.4635 171.771 88.4531 171.693 88.4531 171.594V167.844C88.4531 167.37 88.3411 166.997 88.1172 166.727C87.8984 166.456 87.5443 166.32 87.0547 166.32C86.6849 166.32 86.3411 166.362 86.0234 166.445C85.7057 166.529 85.4219 166.641 85.1719 166.781C84.9271 166.922 84.7214 167.089 84.5547 167.281C84.388 167.469 84.2734 167.667 84.2109 167.875V171.594C84.2109 171.776 84.1797 171.891 84.1172 171.938C84.0599 171.979 84 172 83.9375 172C83.901 172 83.862 171.997 83.8203 171.992C83.7786 171.987 83.7396 171.971 83.7031 171.945C83.6719 171.919 83.6432 171.88 83.6172 171.828C83.5964 171.771 83.5859 171.693 83.5859 171.594V166.398C83.5859 166.232 83.6198 166.128 83.6875 166.086C83.7552 166.039 83.8281 166.016 83.9062 166.016C83.9948 166.016 84.0651 166.039 84.1172 166.086C84.1745 166.128 84.2031 166.232 84.2031 166.398V167.359C84.2865 167.125 84.4167 166.914 84.5938 166.727C84.776 166.539 84.9896 166.383 85.2344 166.258C85.4844 166.128 85.763 166.029 86.0703 165.961C86.3776 165.893 86.7005 165.859 87.0391 165.859C87.4349 165.859 87.7526 165.914 87.9922 166.023C88.237 166.128 88.4271 166.258 88.5625 166.414C88.6979 166.565 88.7917 166.724 88.8438 166.891C88.901 167.057 88.9427 167.201 88.9688 167.32C89.0625 167.159 89.1875 166.992 89.3438 166.82C89.5052 166.648 89.7005 166.492 89.9297 166.352C90.1641 166.206 90.4375 166.089 90.75 166C91.0625 165.906 91.4193 165.859 91.8203 165.859C92.5391 165.859 93.0703 166.044 93.4141 166.414C93.7578 166.779 93.9297 167.367 93.9297 168.18V171.594C93.9297 171.688 93.9193 171.76 93.8984 171.812C93.8776 171.865 93.8516 171.906 93.8203 171.938C93.7943 171.964 93.763 171.982 93.7266 171.992C93.6901 171.997 93.6562 172 93.625 172C93.5833 172 93.5443 171.997 93.5078 171.992C93.4714 171.987 93.4375 171.971 93.4062 171.945C93.375 171.919 93.349 171.88 93.3281 171.828C93.3125 171.771 93.3047 171.693 93.3047 171.594V168.18ZM99.7656 166.32C99.2812 166.32 98.8516 166.362 98.4766 166.445C98.1016 166.529 97.7812 166.664 97.5156 166.852C97.2552 167.034 97.0521 167.271 96.9062 167.562C96.7604 167.854 96.6771 168.211 96.6562 168.633H102.547V168.211C102.547 167.951 102.497 167.706 102.398 167.477C102.305 167.247 102.148 167.047 101.93 166.875C101.711 166.703 101.424 166.568 101.07 166.469C100.716 166.37 100.281 166.32 99.7656 166.32ZM99.3594 171.617C99.8542 171.617 100.286 171.586 100.656 171.523C101.026 171.461 101.344 171.385 101.609 171.297C101.875 171.208 102.091 171.117 102.258 171.023C102.43 170.93 102.562 170.852 102.656 170.789C102.688 170.779 102.708 170.773 102.719 170.773C102.776 170.773 102.828 170.802 102.875 170.859C102.927 170.911 102.953 170.969 102.953 171.031C102.953 171.089 102.927 171.135 102.875 171.172C102.828 171.219 102.727 171.292 102.57 171.391C102.419 171.49 102.201 171.591 101.914 171.695C101.628 171.794 101.273 171.883 100.852 171.961C100.43 172.039 99.9297 172.078 99.3516 172.078C98.7474 172.078 98.2344 172.003 97.8125 171.852C97.3906 171.701 97.0469 171.49 96.7812 171.219C96.5156 170.948 96.3229 170.622 96.2031 170.242C96.0833 169.862 96.0234 169.445 96.0234 168.992C96.0234 168.388 96.1198 167.885 96.3125 167.484C96.5052 167.083 96.7682 166.763 97.1016 166.523C97.4401 166.279 97.8359 166.107 98.2891 166.008C98.7474 165.909 99.2396 165.859 99.7656 165.859C100.849 165.859 101.659 166.068 102.195 166.484C102.737 166.896 103.008 167.487 103.008 168.258C103.008 168.331 103.003 168.411 102.992 168.5C102.982 168.589 102.966 168.674 102.945 168.758C102.93 168.836 102.909 168.904 102.883 168.961C102.862 169.013 102.841 169.039 102.82 169.039H100.523L96.6484 168.961C96.6589 169.445 96.7214 169.857 96.8359 170.195C96.9557 170.529 97.1276 170.802 97.3516 171.016C97.5807 171.224 97.862 171.378 98.1953 171.477C98.5286 171.57 98.9167 171.617 99.3594 171.617Z" fill="#FF4500"/>
<path d="M232.36 173L228.58 166.4V165.52H229.02C229.727 165.52 230.32 165.453 230.8 165.32C231.293 165.187 231.68 164.967 231.96 164.66C232.24 164.353 232.407 163.933 232.46 163.4H228.58V162.12H232.44C232.347 161.627 232.16 161.227 231.88 160.92C231.6 160.6 231.22 160.367 230.74 160.22C230.273 160.073 229.7 160 229.02 160H228.58V158.72H236.86V160H233.08C233.387 160.253 233.64 160.553 233.84 160.9C234.04 161.247 234.167 161.653 234.22 162.12H236.86V163.4H234.26C234.167 164.373 233.793 165.133 233.14 165.68C232.5 166.213 231.647 166.553 230.58 166.7L234.4 173H232.36ZM250.037 172.658C250.037 172.756 250.021 172.827 249.988 172.873C249.956 172.919 249.91 172.951 249.852 172.971C249.799 172.99 249.734 173 249.656 173C249.578 173 249.49 173 249.393 173H240.271C240.206 173 240.158 172.997 240.125 172.99C240.092 172.984 240.066 172.967 240.047 172.941C240.034 172.915 240.024 172.883 240.018 172.844C240.018 172.798 240.018 172.736 240.018 172.658V162.58C240.018 162.482 240.018 162.404 240.018 162.346C240.024 162.287 240.037 162.242 240.057 162.209C240.076 162.176 240.109 162.154 240.154 162.141C240.206 162.128 240.281 162.121 240.379 162.121H249.295C249.393 162.121 249.484 162.121 249.568 162.121C249.653 162.121 249.728 162.131 249.793 162.15C249.865 162.17 249.92 162.202 249.959 162.248C249.998 162.294 250.018 162.365 250.018 162.463C250.018 162.541 249.998 162.603 249.959 162.648C249.92 162.688 249.865 162.717 249.793 162.736C249.728 162.756 249.653 162.766 249.568 162.766C249.484 162.766 249.393 162.766 249.295 162.766H240.848V167.043H249.246C249.389 167.043 249.51 167.062 249.607 167.102C249.705 167.141 249.754 167.225 249.754 167.355C249.754 167.499 249.712 167.593 249.627 167.639C249.549 167.684 249.445 167.707 249.314 167.707H240.848V172.355H249.314C249.412 172.355 249.503 172.355 249.588 172.355C249.673 172.355 249.747 172.365 249.812 172.385C249.884 172.404 249.939 172.437 249.979 172.482C250.018 172.521 250.037 172.58 250.037 172.658ZM260.291 172.316C260.434 172.453 260.506 172.593 260.506 172.736C260.506 172.932 260.402 173.029 260.193 173.029C260.083 173.029 259.952 172.964 259.803 172.834L256.375 169.709L252.947 172.834C252.863 172.906 252.788 172.958 252.723 172.99C252.664 173.016 252.602 173.029 252.537 173.029C252.335 173.029 252.234 172.928 252.234 172.727C252.234 172.596 252.309 172.46 252.459 172.316L255.848 169.221L252.42 166.184C252.29 166.073 252.225 165.952 252.225 165.822C252.225 165.738 252.254 165.666 252.312 165.607C252.378 165.549 252.456 165.52 252.547 165.52C252.677 165.52 252.811 165.578 252.947 165.695L256.375 168.742L259.803 165.695C259.926 165.578 260.057 165.52 260.193 165.52C260.285 165.52 260.359 165.549 260.418 165.607C260.483 165.66 260.516 165.731 260.516 165.822C260.516 165.946 260.454 166.066 260.33 166.184L256.902 169.221L260.291 172.316ZM268.67 165.324C269.256 165.324 269.809 165.386 270.33 165.51C270.857 165.627 271.316 165.832 271.707 166.125C272.104 166.418 272.417 166.809 272.645 167.297C272.879 167.785 272.996 168.397 272.996 169.133C272.996 169.862 272.898 170.48 272.703 170.988C272.514 171.49 272.234 171.896 271.863 172.209C271.499 172.521 271.046 172.749 270.506 172.893C269.972 173.029 269.36 173.098 268.67 173.098C268.143 173.098 267.658 173.065 267.215 173C266.772 172.935 266.368 172.854 266.004 172.756C265.646 172.652 265.324 172.538 265.037 172.414C264.751 172.29 264.497 172.17 264.275 172.053L264.256 175.607C264.256 175.692 264.253 175.773 264.246 175.852C264.246 175.936 264.233 176.011 264.207 176.076C264.181 176.141 264.142 176.193 264.09 176.232C264.044 176.271 263.973 176.291 263.875 176.291C263.777 176.291 263.702 176.268 263.65 176.223C263.605 176.184 263.569 176.128 263.543 176.057C263.517 175.992 263.501 175.913 263.494 175.822C263.494 175.738 263.494 175.646 263.494 175.549V165.998C263.494 165.79 263.533 165.66 263.611 165.607C263.689 165.549 263.774 165.52 263.865 165.52C263.976 165.52 264.064 165.549 264.129 165.607C264.194 165.66 264.227 165.79 264.227 165.998V167.287C264.305 167.014 264.438 166.776 264.627 166.574C264.816 166.366 265.037 166.19 265.291 166.047C265.545 165.897 265.818 165.777 266.111 165.686C266.411 165.588 266.71 165.513 267.01 165.461C267.316 165.409 267.612 165.373 267.898 165.354C268.185 165.334 268.442 165.324 268.67 165.324ZM268.67 165.9C268.279 165.907 267.853 165.939 267.391 165.998C266.928 166.05 266.486 166.148 266.062 166.291C265.639 166.434 265.265 166.633 264.939 166.887C264.614 167.141 264.393 167.473 264.275 167.883V171.633C264.555 171.737 264.855 171.844 265.174 171.955C265.499 172.059 265.844 172.154 266.209 172.238C266.574 172.323 266.961 172.391 267.371 172.443C267.781 172.495 268.214 172.521 268.67 172.521C269.295 172.521 269.829 172.456 270.271 172.326C270.721 172.196 271.089 171.994 271.375 171.721C271.668 171.441 271.88 171.089 272.01 170.666C272.146 170.236 272.215 169.725 272.215 169.133C272.215 168.521 272.12 168.007 271.932 167.59C271.749 167.173 271.499 166.841 271.18 166.594C270.861 166.346 270.483 166.171 270.047 166.066C269.617 165.956 269.158 165.9 268.67 165.9Z" fill="#FF4500"/>
<g filter="url(#filter0_f_50_810)">
<rect x="1" y="179" width="299" height="71" rx="15" fill="#261D14"/>
</g>
<path d="M91.9219 223.906C91.9219 224.208 91.875 224.469 91.7812 224.688C91.6979 224.896 91.5312 225 91.2812 225C90.9792 225 90.7865 224.896 90.7031 224.688C90.6302 224.469 90.5938 224.219 90.5938 223.938V208.172C90.5938 208.016 90.5938 207.901 90.5938 207.828C90.6042 207.745 90.625 207.688 90.6562 207.656C90.6875 207.625 90.7396 207.609 90.8125 207.609C90.8958 207.599 91.0156 207.594 91.1719 207.594H106.453C106.589 207.594 106.714 207.599 106.828 207.609C106.953 207.609 107.057 207.63 107.141 207.672C107.234 207.703 107.307 207.755 107.359 207.828C107.411 207.901 107.438 208.005 107.438 208.141C107.438 208.38 107.349 208.521 107.172 208.562C106.995 208.604 106.755 208.625 106.453 208.625H91.9219V215.719H104.219C104.521 215.719 104.766 215.74 104.953 215.781C105.151 215.823 105.25 215.964 105.25 216.203C105.25 216.339 105.219 216.443 105.156 216.516C105.104 216.589 105.031 216.646 104.938 216.688C104.844 216.719 104.734 216.74 104.609 216.75C104.484 216.75 104.354 216.75 104.219 216.75H91.9219V223.906ZM115.547 213.641C114.578 213.641 113.719 213.724 112.969 213.891C112.219 214.057 111.578 214.328 111.047 214.703C110.526 215.068 110.12 215.542 109.828 216.125C109.536 216.708 109.37 217.422 109.328 218.266H121.109V217.422C121.109 216.901 121.01 216.411 120.812 215.953C120.625 215.495 120.312 215.094 119.875 214.75C119.438 214.406 118.865 214.135 118.156 213.938C117.448 213.74 116.578 213.641 115.547 213.641ZM114.734 224.234C115.724 224.234 116.589 224.172 117.328 224.047C118.068 223.922 118.703 223.771 119.234 223.594C119.766 223.417 120.198 223.234 120.531 223.047C120.875 222.859 121.141 222.703 121.328 222.578C121.391 222.557 121.432 222.547 121.453 222.547C121.568 222.547 121.672 222.604 121.766 222.719C121.87 222.823 121.922 222.938 121.922 223.062C121.922 223.177 121.87 223.271 121.766 223.344C121.672 223.438 121.469 223.583 121.156 223.781C120.854 223.979 120.417 224.182 119.844 224.391C119.271 224.589 118.562 224.766 117.719 224.922C116.875 225.078 115.875 225.156 114.719 225.156C113.51 225.156 112.484 225.005 111.641 224.703C110.797 224.401 110.109 223.979 109.578 223.438C109.047 222.896 108.661 222.245 108.422 221.484C108.182 220.724 108.062 219.891 108.062 218.984C108.062 217.776 108.255 216.771 108.641 215.969C109.026 215.167 109.552 214.526 110.219 214.047C110.896 213.557 111.688 213.214 112.594 213.016C113.51 212.818 114.495 212.719 115.547 212.719C117.714 212.719 119.333 213.135 120.406 213.969C121.49 214.792 122.031 215.974 122.031 217.516C122.031 217.661 122.021 217.823 122 218C121.979 218.177 121.948 218.349 121.906 218.516C121.875 218.672 121.833 218.807 121.781 218.922C121.74 219.026 121.698 219.078 121.656 219.078H117.062L109.312 218.922C109.333 219.891 109.458 220.714 109.688 221.391C109.927 222.057 110.271 222.604 110.719 223.031C111.177 223.448 111.74 223.755 112.406 223.953C113.073 224.141 113.849 224.234 114.734 224.234ZM134.594 212.719C135.531 212.719 136.417 212.818 137.25 213.016C138.094 213.203 138.828 213.531 139.453 214C140.089 214.469 140.589 215.094 140.953 215.875C141.328 216.656 141.516 217.635 141.516 218.812C141.516 219.979 141.359 220.969 141.047 221.781C140.745 222.583 140.297 223.234 139.703 223.734C139.12 224.234 138.396 224.599 137.531 224.828C136.677 225.047 135.698 225.156 134.594 225.156C133.75 225.156 132.974 225.104 132.266 225C131.557 224.896 130.911 224.766 130.328 224.609C129.755 224.443 129.24 224.26 128.781 224.062C128.323 223.865 127.917 223.672 127.562 223.484V223.859C127.562 224.016 127.557 224.161 127.547 224.297C127.536 224.432 127.51 224.552 127.469 224.656C127.427 224.76 127.365 224.844 127.281 224.906C127.198 224.969 127.078 225 126.922 225C126.766 225 126.646 224.969 126.562 224.906C126.49 224.844 126.432 224.76 126.391 224.656C126.349 224.552 126.323 224.432 126.312 224.297C126.312 224.161 126.312 224.016 126.312 223.859V208.359C126.312 208.026 126.38 207.818 126.516 207.734C126.661 207.641 126.812 207.594 126.969 207.594C127.125 207.594 127.26 207.641 127.375 207.734C127.5 207.818 127.562 208.026 127.562 208.359V215.828C127.677 215.391 127.88 215.01 128.172 214.688C128.464 214.354 128.807 214.073 129.203 213.844C129.609 213.615 130.052 213.427 130.531 213.281C131.01 213.135 131.49 213.021 131.969 212.938C132.458 212.854 132.927 212.797 133.375 212.766C133.833 212.734 134.24 212.719 134.594 212.719ZM134.594 213.641C133.969 213.651 133.286 213.703 132.547 213.797C131.807 213.88 131.099 214.036 130.422 214.266C129.745 214.495 129.146 214.812 128.625 215.219C128.104 215.625 127.75 216.156 127.562 216.812V222.812C128.01 222.979 128.49 223.151 129 223.328C129.521 223.495 130.073 223.646 130.656 223.781C131.24 223.917 131.859 224.026 132.516 224.109C133.172 224.193 133.865 224.234 134.594 224.234C135.594 224.234 136.448 224.13 137.156 223.922C137.875 223.714 138.464 223.391 138.922 222.953C139.391 222.505 139.729 221.943 139.938 221.266C140.156 220.578 140.266 219.76 140.266 218.812C140.266 217.833 140.115 217.01 139.812 216.344C139.521 215.677 139.12 215.146 138.609 214.75C138.099 214.354 137.495 214.073 136.797 213.906C136.109 213.729 135.375 213.641 134.594 213.641ZM157.625 208.359C156.708 208.359 155.865 208.448 155.094 208.625C154.333 208.792 153.656 208.964 153.062 209.141C152.875 209.193 152.74 209.219 152.656 209.219C152.479 209.219 152.339 209.182 152.234 209.109C152.141 209.026 152.094 208.927 152.094 208.812C152.094 208.615 152.271 208.422 152.625 208.234C152.99 208.047 153.443 207.885 153.984 207.75C154.536 207.604 155.135 207.49 155.781 207.406C156.427 207.323 157.042 207.281 157.625 207.281C158.771 207.281 159.75 207.396 160.562 207.625C161.375 207.854 162.036 208.182 162.547 208.609C163.068 209.036 163.443 209.552 163.672 210.156C163.911 210.75 164.031 211.411 164.031 212.141C164.031 213.036 163.87 213.797 163.547 214.422C163.234 215.047 162.818 215.589 162.297 216.047C161.786 216.505 161.203 216.901 160.547 217.234C159.891 217.568 159.214 217.885 158.516 218.188C157.828 218.49 157.156 218.802 156.5 219.125C155.844 219.438 155.255 219.812 154.734 220.25C154.224 220.677 153.807 221.188 153.484 221.781C153.172 222.365 153.016 223.073 153.016 223.906H162.391C162.63 223.906 162.807 223.964 162.922 224.078C163.036 224.193 163.094 224.323 163.094 224.469C163.094 224.615 163.036 224.745 162.922 224.859C162.807 224.974 162.63 225.031 162.391 225.031H152.5C152.198 225.031 152.021 224.948 151.969 224.781C151.917 224.604 151.891 224.312 151.891 223.906C151.891 222.99 152.047 222.198 152.359 221.531C152.672 220.865 153.083 220.286 153.594 219.797C154.115 219.297 154.703 218.865 155.359 218.5C156.026 218.135 156.698 217.792 157.375 217.469C158.062 217.146 158.734 216.828 159.391 216.516C160.057 216.193 160.646 215.833 161.156 215.438C161.677 215.031 162.094 214.568 162.406 214.047C162.719 213.516 162.875 212.88 162.875 212.141C162.875 211.464 162.75 210.885 162.5 210.406C162.26 209.927 161.911 209.536 161.453 209.234C161.005 208.932 160.458 208.714 159.812 208.578C159.167 208.432 158.438 208.359 157.625 208.359ZM179.047 216.297C179.047 214.943 178.964 213.766 178.797 212.766C178.641 211.755 178.349 210.922 177.922 210.266C177.505 209.599 176.927 209.104 176.188 208.781C175.458 208.458 174.526 208.297 173.391 208.297C172.266 208.297 171.339 208.458 170.609 208.781C169.88 209.104 169.302 209.599 168.875 210.266C168.448 210.922 168.151 211.755 167.984 212.766C167.818 213.766 167.734 214.943 167.734 216.297C167.734 217.661 167.818 218.844 167.984 219.844C168.151 220.844 168.448 221.677 168.875 222.344C169.302 223 169.88 223.49 170.609 223.812C171.339 224.135 172.266 224.297 173.391 224.297C174.526 224.297 175.458 224.135 176.188 223.812C176.927 223.49 177.505 223 177.922 222.344C178.349 221.677 178.641 220.844 178.797 219.844C178.964 218.844 179.047 217.661 179.047 216.297ZM166.547 216.297C166.547 214.943 166.635 213.708 166.812 212.594C167 211.479 167.344 210.531 167.844 209.75C168.344 208.958 169.036 208.349 169.922 207.922C170.818 207.484 171.974 207.266 173.391 207.266C174.807 207.266 175.958 207.484 176.844 207.922C177.74 208.349 178.438 208.958 178.938 209.75C179.438 210.531 179.776 211.479 179.953 212.594C180.141 213.708 180.234 214.943 180.234 216.297C180.234 217.661 180.141 218.901 179.953 220.016C179.776 221.12 179.438 222.068 178.938 222.859C178.438 223.641 177.74 224.25 176.844 224.688C175.958 225.115 174.807 225.328 173.391 225.328C171.974 225.328 170.818 225.115 169.922 224.688C169.036 224.25 168.344 223.641 167.844 222.859C167.344 222.068 167 221.12 166.812 220.016C166.635 218.901 166.547 217.661 166.547 216.297ZM188.656 208.359C187.74 208.359 186.896 208.448 186.125 208.625C185.365 208.792 184.688 208.964 184.094 209.141C183.906 209.193 183.771 209.219 183.688 209.219C183.51 209.219 183.37 209.182 183.266 209.109C183.172 209.026 183.125 208.927 183.125 208.812C183.125 208.615 183.302 208.422 183.656 208.234C184.021 208.047 184.474 207.885 185.016 207.75C185.568 207.604 186.167 207.49 186.812 207.406C187.458 207.323 188.073 207.281 188.656 207.281C189.802 207.281 190.781 207.396 191.594 207.625C192.406 207.854 193.068 208.182 193.578 208.609C194.099 209.036 194.474 209.552 194.703 210.156C194.943 210.75 195.062 211.411 195.062 212.141C195.062 213.036 194.901 213.797 194.578 214.422C194.266 215.047 193.849 215.589 193.328 216.047C192.818 216.505 192.234 216.901 191.578 217.234C190.922 217.568 190.245 217.885 189.547 218.188C188.859 218.49 188.188 218.802 187.531 219.125C186.875 219.438 186.286 219.812 185.766 220.25C185.255 220.677 184.839 221.188 184.516 221.781C184.203 222.365 184.047 223.073 184.047 223.906H193.422C193.661 223.906 193.839 223.964 193.953 224.078C194.068 224.193 194.125 224.323 194.125 224.469C194.125 224.615 194.068 224.745 193.953 224.859C193.839 224.974 193.661 225.031 193.422 225.031H183.531C183.229 225.031 183.052 224.948 183 224.781C182.948 224.604 182.922 224.312 182.922 223.906C182.922 222.99 183.078 222.198 183.391 221.531C183.703 220.865 184.115 220.286 184.625 219.797C185.146 219.297 185.734 218.865 186.391 218.5C187.057 218.135 187.729 217.792 188.406 217.469C189.094 217.146 189.766 216.828 190.422 216.516C191.089 216.193 191.677 215.833 192.188 215.438C192.708 215.031 193.125 214.568 193.438 214.047C193.75 213.516 193.906 212.88 193.906 212.141C193.906 211.464 193.781 210.885 193.531 210.406C193.292 209.927 192.943 209.536 192.484 209.234C192.036 208.932 191.49 208.714 190.844 208.578C190.198 208.432 189.469 208.359 188.656 208.359ZM200.656 216.094C200.469 216.094 200.328 216.042 200.234 215.938C200.151 215.833 200.109 215.719 200.109 215.594C200.109 215.469 200.151 215.354 200.234 215.25C200.328 215.146 200.469 215.094 200.656 215.094H202.875C203.875 215.094 204.703 214.995 205.359 214.797C206.026 214.599 206.557 214.344 206.953 214.031C207.349 213.708 207.625 213.344 207.781 212.938C207.948 212.531 208.031 212.12 208.031 211.703C208.031 211.307 207.969 210.911 207.844 210.516C207.729 210.109 207.5 209.75 207.156 209.438C206.812 209.115 206.328 208.854 205.703 208.656C205.078 208.458 204.26 208.359 203.25 208.359C202.677 208.359 202.109 208.401 201.547 208.484C200.984 208.557 200.479 208.641 200.031 208.734C199.583 208.828 199.219 208.917 198.938 209C198.667 209.073 198.531 209.115 198.531 209.125C198.344 209.177 198.208 209.203 198.125 209.203C197.948 209.203 197.807 209.167 197.703 209.094C197.609 209.01 197.562 208.911 197.562 208.797C197.562 208.599 197.74 208.406 198.094 208.219C198.458 208.031 198.911 207.87 199.453 207.734C200.005 207.589 200.604 207.474 201.25 207.391C201.896 207.307 202.51 207.266 203.094 207.266C204.344 207.266 205.359 207.396 206.141 207.656C206.922 207.917 207.536 208.26 207.984 208.688C208.432 209.104 208.734 209.578 208.891 210.109C209.057 210.641 209.141 211.177 209.141 211.719C209.141 212.083 209.078 212.474 208.953 212.891C208.828 213.297 208.604 213.688 208.281 214.062C207.969 214.427 207.542 214.75 207 215.031C206.469 215.302 205.792 215.479 204.969 215.562C205.802 215.677 206.51 215.87 207.094 216.141C207.677 216.401 208.151 216.734 208.516 217.141C208.88 217.536 209.146 217.995 209.312 218.516C209.479 219.026 209.562 219.589 209.562 220.203C209.562 220.922 209.453 221.594 209.234 222.219C209.026 222.844 208.672 223.391 208.172 223.859C207.672 224.318 207.005 224.677 206.172 224.938C205.349 225.198 204.323 225.328 203.094 225.328C202.479 225.328 201.844 225.281 201.188 225.188C200.531 225.104 199.932 224.995 199.391 224.859C198.859 224.714 198.422 224.547 198.078 224.359C197.734 224.172 197.562 223.984 197.562 223.797C197.562 223.682 197.609 223.589 197.703 223.516C197.807 223.432 197.948 223.391 198.125 223.391C198.229 223.391 198.354 223.411 198.5 223.453C198.646 223.484 198.802 223.526 198.969 223.578C199.135 223.63 199.302 223.682 199.469 223.734C199.646 223.786 199.812 223.828 199.969 223.859C200.406 223.953 200.891 224.042 201.422 224.125C201.964 224.208 202.521 224.25 203.094 224.25C204.167 224.25 205.052 224.151 205.75 223.953C206.458 223.745 207.016 223.458 207.422 223.094C207.839 222.729 208.125 222.297 208.281 221.797C208.448 221.286 208.531 220.724 208.531 220.109C208.531 219.589 208.443 219.089 208.266 218.609C208.099 218.12 207.802 217.693 207.375 217.328C206.948 216.953 206.37 216.656 205.641 216.438C204.911 216.208 203.99 216.094 202.875 216.094H200.656Z" fill="#FF4500"/>
</g>
<rect x="0.5" y="0.5" width="299" height="249" rx="14.5" stroke="#FF4500"/>
<defs>
<filter id="filter0_f_50_810" x="-3" y="175" width="307" height="79" filterUnits="userSpaceOnUse" color-interpolation-filters="sRGB">
<feFlood flood-opacity="0" result="BackgroundImageFix"/>
<feBlend mode="normal" in="SourceGraphic" in2="BackgroundImageFix" result="shape"/>
<feGaussianBlur stdDeviation="2" result="effect1_foregroundBlur_50_810"/>
</filter>
<clipPath id="clip0_50_810">
<rect width="300" height="250" rx="15" fill="white"/>
</clipPath>
</defs>
</svg>
